<?xml version="1.0" encoding="utf-8" ?>
<svg baseProfile="full" font-size="12px" height="100%" version="1.1" width="100%" xmlns="http://www.w3.org/2000/svg" xmlns:ev="http://www.w3.org/2001/xml-events" xmlns:xlink="http://www.w3.org/1999/xlink"><defs><marker id="arrow-tip" markerHeight="8.0" markerWidth="8.0" orient="auto" refX="8.0" refY="4.0"><polygon fill="#202020" points="0,0 2.0,4.0 0,8.0 8.0,4.0" /></marker></defs><g transform="translate(12.0,12.0)"><g transform="translate(108.0,0)"><rect fill="#f0f0f0" height="9em" stroke="#909090" stroke-width="0.1em" width="54em" x="0" y="0" /><text fill="#202020" font-family="Nimbus Sans, sans-serif" font-size="1em" font-weight="normal" text-anchor="middle" x="27.0em" y="1.5em"><tspan font-family="Ubuntu Mono, monospace" font-weight="bold">babeltrace convert</tspan><tspan> command</tspan></text></g><g transform="translate(0,36.0)"><g><rect fill="#e0e0e0" height="4em" stroke="#202020" stroke-width="0.1em" width="7em" x="0" y="0" /><text fill="#202020" font-family="Nimbus Sans, sans-serif" font-size="1em" font-weight="bold" text-anchor="middle" x="3.5em" y="2.25em">CTF trace</text></g><g transform="translate(84.0,24.0)"><line fill="none" marker-end="url(#arrow-tip)" stroke="#202020" stroke-width="0.1em" x1="0" x2="48.0" y1="0" y2="0" /></g><g transform="translate(132.0,0)"><g><rect fill="#4fd889" height="4em" stroke="#092916" stroke-width="0.1em" width="8em" x="0" y="0" /><text fill="#202020" font-family="Nimbus Sans, sans-serif" font-size="1em" font-weight="bold" text-anchor="middle" x="4.0em" y="1.65em">source.ctf.fs</text><text fill="#092916" font-family="Nimbus Sans, sans-serif" font-size="1em" font-style="italic" font-weight="normal" text-anchor="middle" x="4.0em" y="2.85em">bt-plugin-ctf.so</text></g><rect fill="#202020" height="0.6em" stroke="none" stroke-width="0.1em" width="0.6em" x="92.4" y="8.4" /><rect fill="#202020" height="0.6em" stroke="none" stroke-width="0.1em" width="0.6em" x="92.4" y="20.4" /><rect fill="#202020" height="0.6em" stroke="none" stroke-width="0.1em" width="0.6em" x="92.4" y="32.4" /></g><g transform="translate(264.0,0)"><g><rect fill="#f8e083" height="4em" stroke="#372c03" stroke-width="0.1em" width="10em" x="0" y="0" /><text fill="#202020" font-family="Nimbus Sans, sans-serif" font-size="1em" font-weight="bold" text-anchor="middle" x="5.0em" y="1.65em">filter.utils.muxer</text><text fill="#372c03" font-family="Nimbus Sans, sans-serif" font-size="1em" font-style="italic" font-weight="normal" text-anchor="middle" x="5.0em" y="2.85em">bt-plugin-utils.so</text></g><rect fill="#202020" height="0.6em" stroke="none" stroke-width="0.1em" width="0.6em" x="-3.5999999999999996" y="8.4" /><rect fill="#202020" height="0.6em" stroke="none" stroke-width="0.1em" width="0.6em" x="-3.5999999999999996" y="20.4" /><rect fill="#202020" height="0.6em" stroke="none" stroke-width="0.1em" width="0.6em" x="-3.5999999999999996" y="32.4" /><rect fill="#202020" height="0.6em" stroke="none" stroke-width="0.1em" width="0.6em" x="116.4" y="20.4" /></g><g transform="translate(228.0,12.0)"><line fill="none" marker-end="url(#arrow-tip)" stroke="#202020" stroke-width="0.1em" x1="0" x2="32.4" y1="0" y2="0" /></g><g transform="translate(228.0,24.0)"><line fill="none" marker-end="url(#arrow-tip)" stroke="#202020" stroke-width="0.1em" x1="0" x2="32.4" y1="0" y2="0" /></g><g transform="translate(228.0,36.0)"><line fill="none" marker-end="url(#arrow-tip)" stroke="#202020" stroke-width="0.1em" x1="0" x2="32.4" y1="0" y2="0" /></g><g transform="translate(420.0,0)"><g><rect fill="#f8e083" height="4em" stroke="#372c03" stroke-width="0.1em" width="14em" x="0" y="0" /><text fill="#202020" font-family="Nimbus Sans, sans-serif" font-size="1em" font-weight="bold" text-anchor="middle" x="7.0em" y="1.65em">filter.lttng-utils.debug-info</text><text fill="#372c03" font-family="Nimbus Sans, sans-serif" font-size="1em" font-style="italic" font-weight="normal" text-anchor="middle" x="7.0em" y="2.85em">bt-plugin-lttng-utils.so</text></g><rect fill="#202020" height="0.6em" stroke="none" stroke-width="0.1em" width="0.6em" x="-3.5999999999999996" y="20.4" /><rect fill="#202020" height="0.6em" stroke="none" stroke-width="0.1em" width="0.6em" x="164.4" y="20.4" /></g><g transform="translate(384.0,24.0)"><line fill="none" marker-end="url(#arrow-tip)" stroke="#202020" stroke-width="0.1em" x1="0" x2="32.4" y1="0" y2="0" /></g><g transform="translate(624.0,0)"><g><rect fill="#f3a49b" height="4em" stroke="#092916" stroke-width="0.1em" width="9em" x="0" y="0" /><text fill="#202020" font-family="Nimbus Sans, sans-serif" font-size="1em" font-weight="bold" text-anchor="middle" x="4.5em" y="1.65em">sink.text.pretty</text><text fill="#092916" font-family="Nimbus Sans, sans-serif" font-size="1em" font-style="italic" font-weight="normal" text-anchor="middle" x="4.5em" y="2.85em">bt-plugin-text.so</text></g><rect fill="#202020" height="0.6em" stroke="none" stroke-width="0.1em" width="0.6em" x="-3.5999999999999996" y="20.4" /></g><g transform="translate(588.0,24.0)"><line fill="none" marker-end="url(#arrow-tip)" stroke="#202020" stroke-width="0.1em" x1="0" x2="32.4" y1="0" y2="0" /></g><g transform="translate(780.0,0)"><rect fill="#e0e0e0" height="4em" stroke="#202020" stroke-width="0.1em" width="7em" x="0" y="0" /><text fill="#202020" font-family="Nimbus Sans, sans-serif" font-size="1em" font-weight="bold" text-anchor="middle" x="3.5em" y="2.25em">Console</text></g><g transform="translate(732.0,24.0)"><line fill="none" marker-end="url(#arrow-tip)" stroke="#202020" stroke-width="0.1em" x1="0" x2="48.0" y1="0" y2="0" /></g></g></g></svg>