<?xml version="1.0" encoding="utf-8" ?>
<svg baseProfile="full" font-size="12px" height="100%" version="1.1" width="100%" xmlns="http://www.w3.org/2000/svg" xmlns:ev="http://www.w3.org/2001/xml-events" xmlns:xlink="http://www.w3.org/1999/xlink"><defs><marker id="arrow-tip" markerHeight="8.0" markerWidth="8.0" orient="auto" refX="8.0" refY="4.0"><polygon fill="#202020" points="0,0 2.0,4.0 0,8.0 8.0,4.0" /></marker></defs><g transform="translate(12.0,12.0)"><g transform="translate(132.0,0)"><rect fill="#f0f0f0" height="24em" stroke="#909090" stroke-width="0.1em" width="48em" x="0" y="0" /><text fill="#202020" font-family="Nimbus Sans, sans-serif" font-size="1em" font-weight="normal" text-anchor="middle" x="24.0em" y="1.5em"><tspan font-family="Ubuntu Mono, monospace" font-weight="bold">babeltrace</tspan><tspan> command</tspan></text></g><g transform="translate(0,36.0)"><g><rect fill="#e0e0e0" height="4em" stroke="#202020" stroke-width="0.1em" width="9em" x="0" y="0" /></g><g transform="translate(108.0,24.0)"><line fill="none" marker-end="url(#arrow-tip)" stroke="#202020" stroke-width="0.1em" x1="0" x2="48.0" y1="0" y2="0" /></g><g transform="translate(0,84.0)"><rect fill="#e0e0e0" height="4em" stroke="#202020" stroke-width="0.1em" width="9em" x="0" y="0" /></g><g transform="translate(108.0,108.0)"><line fill="none" marker-end="url(#arrow-tip)" stroke="#202020" stroke-width="0.1em" x1="0" x2="48.0" y1="0" y2="0" /></g><g transform="translate(0,168.0)"><rect fill="#e0e0e0" height="4em" stroke="#202020" stroke-width="0.1em" width="9em" x="0" y="0" /></g><g transform="translate(108.0,192.0)"><line fill="none" marker-end="url(#arrow-tip)" stroke="#202020" stroke-width="0.1em" x1="0" x2="48.0" y1="0" y2="0" /></g><g transform="translate(156.0,0)"><g><rect fill="#4fd889" height="4em" stroke="#092916" stroke-width="0.1em" width="12em" x="0" y="0" /></g><rect fill="#202020" height="0.6em" stroke="none" stroke-width="0.1em" width="0.6em" x="140.4" y="8.4" /><rect fill="#202020" height="0.6em" stroke="none" stroke-width="0.1em" width="0.6em" x="140.4" y="20.4" /><rect fill="#202020" height="0.6em" stroke="none" stroke-width="0.1em" width="0.6em" x="140.4" y="32.4" /></g><g transform="translate(156.0,84.0)"><g><rect fill="#4fd889" height="4em" stroke="#092916" stroke-width="0.1em" width="12em" x="0" y="0" /></g><rect fill="#202020" height="0.6em" stroke="none" stroke-width="0.1em" width="0.6em" x="140.4" y="8.4" /><rect fill="#202020" height="0.6em" stroke="none" stroke-width="0.1em" width="0.6em" x="140.4" y="20.4" /></g><g transform="translate(156.0,168.0)"><g><rect fill="#4fd889" height="4em" stroke="#092916" stroke-width="0.1em" width="12em" x="0" y="0" /></g><rect fill="#202020" height="0.6em" stroke="none" stroke-width="0.1em" width="0.6em" x="140.4" y="20.4" /></g><g transform="translate(348.0,48.0)"><g><rect fill="#f8e083" height="7em" stroke="#372c03" stroke-width="0.1em" width="12em" x="0" y="0" /></g><rect fill="#202020" height="0.6em" stroke="none" stroke-width="0.1em" width="0.6em" x="-3.5999999999999996" y="8.4" /><rect fill="#202020" height="0.6em" stroke="none" stroke-width="0.1em" width="0.6em" x="-3.5999999999999996" y="20.4" /><rect fill="#202020" height="0.6em" stroke="none" stroke-width="0.1em" width="0.6em" x="-3.5999999999999996" y="32.4" /><rect fill="#202020" height="0.6em" stroke="none" stroke-width="0.1em" width="0.6em" x="-3.5999999999999996" y="44.4" /><rect fill="#202020" height="0.6em" stroke="none" stroke-width="0.1em" width="0.6em" x="-3.5999999999999996" y="56.4" /><rect fill="#202020" height="0.6em" stroke="none" stroke-width="0.1em" width="0.6em" x="-3.5999999999999996" y="68.4" /><rect fill="#202020" height="0.6em" stroke="none" stroke-width="0.1em" width="0.6em" x="140.4" y="38.4" /></g><g transform="translate(300.0,12.0)"><path d="M0,0 C44.4,0 0,48.0 44.4,48.0" fill="none" marker-end="url(#arrow-tip)" stroke="#202020" stroke-width="0.1em" /></g><g transform="translate(300.0,24.0)"><path d="M0,0 C44.4,0 0,48.0 44.4,48.0" fill="none" marker-end="url(#arrow-tip)" stroke="#202020" stroke-width="0.1em" /></g><g transform="translate(300.0,36.0)"><path d="M0,0 C44.4,0 0,48.0 44.4,48.0" fill="none" marker-end="url(#arrow-tip)" stroke="#202020" stroke-width="0.1em" /></g><g transform="translate(300.0,96.0)"><line fill="none" marker-end="url(#arrow-tip)" stroke="#202020" stroke-width="0.1em" x1="0" x2="44.4" y1="0" y2="0" /></g><g transform="translate(300.0,108.0)"><line fill="none" marker-end="url(#arrow-tip)" stroke="#202020" stroke-width="0.1em" x1="0" x2="44.4" y1="0" y2="0" /></g><g transform="translate(300.0,192.0)"><path d="M0,0 C44.4,0 0,72.0 44.4,72.0" fill="none" marker-end="url(#arrow-tip)" stroke="#202020" stroke-width="0.1em" transform="scale(1,-1)" /></g><g transform="translate(540.0,66.0)"><g><rect fill="#f3a49b" height="4em" stroke="#092916" stroke-width="0.1em" width="12em" x="0" y="0" /></g><rect fill="#202020" height="0.6em" stroke="none" stroke-width="0.1em" width="0.6em" x="-3.5999999999999996" y="20.4" /></g><g transform="translate(492.0,90.0)"><line fill="none" marker-end="url(#arrow-tip)" stroke="#202020" stroke-width="0.1em" x1="0" x2="44.4" y1="0" y2="0" /></g><g transform="translate(732.0,66.0)"><rect fill="#e0e0e0" height="4em" stroke="#202020" stroke-width="0.1em" width="8em" x="0" y="0" /></g><g transform="translate(684.0,90.0)"><line fill="none" marker-end="url(#arrow-tip)" stroke="#202020" stroke-width="0.1em" x1="0" x2="48.0" y1="0" y2="0" /></g></g></g></svg>
